<mxfile host="app.diagrams.net" modified="2023-06-07T19:04:13.596Z" agent="Mozilla/5.0 (Windows NT 10.0; Win64; x64) AppleWebKit/537.36 (KHTML, like Gecko) Chrome/114.0.0.0 Safari/537.36" etag="HB-3H32MVZ9OytaPYEg0" version="21.3.7" type="device">
  <diagram name="PÃ¡gina-1" id="AAT8G8o6kPzF2yMAW0VO">
    <mxGraphModel dx="794" dy="470" grid="1" gridSize="10" guides="1" tooltips="1" connect="1" arrows="1" fold="1" page="1" pageScale="1" pageWidth="827" pageHeight="1169" math="0" shadow="0">
      <root>
        <mxCell id="0" />
        <mxCell id="1" parent="0" />
        <mxCell id="uJIaa8Uo3cL_eyI10xOK-3" value="" style="rounded=1;whiteSpace=wrap;html=1;" vertex="1" parent="1">
          <mxGeometry x="160" y="96" width="480" height="200" as="geometry" />
        </mxCell>
        <mxCell id="uJIaa8Uo3cL_eyI10xOK-9" style="edgeStyle=orthogonalEdgeStyle;rounded=0;orthogonalLoop=1;jettySize=auto;html=1;exitX=0.855;exitY=0.855;exitDx=0;exitDy=0;exitPerimeter=0;" edge="1" parent="1" source="uJIaa8Uo3cL_eyI10xOK-2" target="uJIaa8Uo3cL_eyI10xOK-5">
          <mxGeometry relative="1" as="geometry" />
        </mxCell>
        <mxCell id="uJIaa8Uo3cL_eyI10xOK-2" value="" style="outlineConnect=0;dashed=0;verticalLabelPosition=bottom;verticalAlign=top;align=center;html=1;shape=mxgraph.aws3.lambda_function;fillColor=#F58534;gradientColor=none;" vertex="1" parent="1">
          <mxGeometry x="240" y="140" width="69" height="72" as="geometry" />
        </mxCell>
        <mxCell id="uJIaa8Uo3cL_eyI10xOK-5" value="" style="outlineConnect=0;dashed=0;verticalLabelPosition=bottom;verticalAlign=top;align=center;html=1;shape=mxgraph.aws3.redshift;fillColor=#2E73B8;gradientColor=none;" vertex="1" parent="1">
          <mxGeometry x="490" y="163.5" width="67.5" height="75" as="geometry" />
        </mxCell>
        <mxCell id="uJIaa8Uo3cL_eyI10xOK-8" value="" style="shape=image;verticalLabelPosition=bottom;labelBackgroundColor=default;verticalAlign=top;aspect=fixed;imageAspect=0;image=data:image/jpeg,/9j/4AAQSkZJRgABAQAAAQABAAD/2wCEAAkGBxMREBAQEBAQFRUVEBUVFhIWFxUSEhUSFxUXFhUVFRUYHSghGBolHRUVITEhJikrLi4uGB8zODMsNygtMCsBCgoKDg0OGxAQGi0fICUtLSstLS0tLS8tLS0tLS0tLS0tLS0tLS0tLS0tLS0tLS0tLS0tLS0tLS0tLSsrLS0vLf/AABEIAOEA4QMBIgACEQEDEQH/xAAcAAEAAgMBAQEAAAAAAAAAAAAABAUBAwYHAgj/xABQEAABAgMBCQsHCAgFBQEAAAABAAIDBBEFBhIhMUFRYXGRExQVIlJTgZKhsdEHFjJyssHwIzM0QlRzgtJDYmN0k6LC4iU1VdPhJJSzw/EX/8QAGgEBAAIDAQAAAAAAAAAAAAAAAAIDAQQFBv/EADsRAAIBAgIFCgQDCAMAAAAAAAABAgMRBCESMUFRcQUTFDJhkaGx0fAiUoHBFeHxBhYjMzRCcqIkRLL/2gAMAwEAAhEDEQA/APcUREAREQBERAEREARaosVrGlz3BrQCS4kBoAxkk4gvP7ofKjBhEsk2bu7Fujqtgg6PrP6KA5CpRg5OyIyko6z0VV0/bMtL/PzMCGcz3ta46gTUrwm17sZ6Zruky9rebhfJM1cXC4esSqeBJvf6ENxrlAwbcSvWGe1lDxG5HuMz5R7OYSBHc8jkQ4pHQ4tAO1QX+VWRGJk0dIYz3vC8oZYkY4w0az4VW4WBE5cP+bwVnR4kOkSPV4XlQkDjMduuGT7JKtJO7ez4vozkIaIlYP8A5AF4k6wYmR0M9JHuUaLZUZv6MnVR3YMKw8PHtCxEj9KQorXAOa4OBxEEEHUQti/McnNxZd1YMSLCdlvHOhk6wKV1FdrYPlRmYRDZprY7MrgBDjAaxxXaiBrVUsO1qdy2NdPWrHs6KpsG6CXnYe6S8S+pS+YeLEYcz25MuHEaYCVbKi1tZenfUEREAREQBERAEREAREQBERAEREAREQBRbQnGQIT4sVwaxjS5zjkA7zoyqUvMPLTaTgyWlWnA8uiv0hlAwHOKlx1tClCOlKxCctGNzjrsbsI1oPIwsgA8SDXHTE6JT0nZaYhkyk11n2K+JRzuI3T6RGge8rfc7Z4iExHioaaAZC7Hh1YNq7+5OzWx5gCIKtY0vLTidQgAHRU16F0PhhHsRo5zlbac7IXPUbfw5eI8c5eOf20oOhfb3gYyNWXYvaAKYAuI8o1ks3Ns01oDw8NfTBfNOInOQQBXMdAVVPEaUtFqxZUoaMbp3OIdMt0lfO+xySo96l6tqyNW5v30MxW1sdpy7cChXqUSxm5NiQWvFHBrhpFQqmdsEGphGh5JwtOo4wpTSRiNFMgR64Dj71FokmcrIT0aUjiLCc6HFYdoytcPrNODBq0L3m5C6JloSzYzRevBvYkPkRBmztOMHMc4K8guhkw6HugHGZ2tyjox7VN8k1pmDaDYVTezDHMIyX7AYjHHVR4/GtetDSjfai+lPRlbee4oiLSN0IiIAiIgCIiAIiIAiIgCIiAIiIAvHvLV9Llv3c+2V7CvHfLV9Ll/3b/2OVtDrlVbqMqblh8gfvXey1dFYFrCVmxEfW8cy8fTCQ0kG+Ay0IHRVc/coPkD967uarKLLXxrVb9k1Zmldp3R67LzTIjb9j2ObygQRtXC3eW6yK1stBcHAOvnvGFtRWjAcuOp1DTTmDI6RsTeensVNOhGMr3uWTrylG1rEO9XzRT956exY3np7FsXRQkyDRYop289PYtD4dCQl0LGm9WYY4w1jvX3erMNuEax3owbbSHyMb7p/slUlwp/xKS+/HcVfWmPkI33T/ZKoLhf8ykvvx3FVS6rLY61xP0QiIucdAIiIAiIgCIiAIiIAiIgC0x4zWNc97mta0Vc5xDWgDGSTgAX094AJJAAFSTgAAxkleE3d3Xvn4pYwkSzHcRmLdCP0jxl0A4hpqp06bm7EJzUEd7a3lSlITi2CyLHI+s0BkOvrOwnWG00qnPlgP8Ap4/jn/ZXE2Xc5EjND3EQ2nESKuIzhubWrPzRZzz9gW2qENxqutPedH/+wO/08f8AcH/ZXH3ZXTG0Y0OKYIhXkO8vb/dK8YurW9bTHiU3zRZzr9gTzSZzr9gUo0oRd0vMi6kmrN+RVWTbm4Qyzcr7jF1b69xgClKHMpnnWeYHX/tUnzSZzr9gTzSZzr9gU7kSN51/sB1/7U86/wBh/P8A2qT5pM51/VC+fNJvPO6o8UuDR51/sB1/7U86v2A6/wDapHmk3nndUeKx5pN553VHilwW1nTO6wmRL29vq4K1pQkY6aFpjjjHWpdnye5Q2wwa3tcOKtST71Hjt4x1rCZhmm9RgwjWEjRWs9IgaMuxVsWdLnANwCo1nCp2uQbsWNrzHyUVrebcCfwnAqW4X/MpL78dxU6c+bieo7uKqbl5ncpyWigVvIgNK0rgOVV1GowbexPyLYXclxXmfpBFxPny77O3rn8qefLvs7eufyrzv4thPn8Jeh1+j1N3idsi4rz4d9nb1z+VSJa7ZhNIkJzdLSHbQQFKPKmEk7KfemvFqxh4eoth1qKLJTsOM2/hPDhoxg5iMYOtSlvJpq6zKWrBERZAREQBERAcB5XLcMGVbKsNHzBIdogtpf8AWJa3SC5eZXMWYI0WrhVjKEjIXfVbqwE9GlTPKHau+bRjuBq2GdxZqhkh215ea5iFfXMyW5SzKjjP47vxYhsot+lHRiaNSWlJk6K+i0GYOYL7jmrtWBaaK0qZ97ucwTfBzBRpiaYz0jhzDCdirY1quPoADScJ8FJRbIuVi63wcwWt8+0Y3MHThXOxY7nek4nu2LUpc2R5w6F1rszjY5fHDTPgFUCwU5tGOcZ0HDTMx2L5Nut5LuzxVCsJzaM6bLl9vHJDHSfcoEe0XvJNaVyDB241FKws6KRhybBKzD9Jusd6wV9QvSbrHesswWE583E9R3cVQWN8/B9dX8383E9R3cVQWN8/C9daeJ/lT/xfkbVHrx4rzPQLKlRFjMhuJAcThGPA0nLqXTeaULnIn8vgqC5v6VB1u9hy755oKrwGEpwlScpK56KrJqWRQeaULnIn8vgoU7cm4AmFEvv1XC9PQcXcuo3U6F9siVVyp0J5WIaU1nc88kpuLLRb5hLXNNHNOI52kL0my59sxCbFZlwEZWuGNp+My5i66zQ5m+GjjNoH6W4gdYwdGpRLiZ/c45hE8WKMGhwFQekVGxX4CtLDV+Zk/hlq7G/V5PvMVoqpDTWtHoCIi9IaAREQBV9uz295aYj83Be8DOWtJA6TQKwXIeVSOWWXHANC90JnQYrSRsBUoq8kiMnZNniVmyxixoUMkm/eA45SK1ca56VK9RfgB0BcHcVCvpsHkw3u7m/1LsrWnGwmYcJJwNynwC6DzdjQ1K5ojRA0XzjQZ1TzlqF2BnFGf6x8FDmpl0Q1cdQyDUFqWxGCRrym2CiIpkDBWFlb4cq448GvHsWGZRGWCp7ZRuWp7F9b2bm7So6RnRK5YVlvZubtKb1Zye0ppErFaVhWW9mcntPisb2Zye0+KxpCxXFSJOFU3xxDvUoSzeT2lYmI7YbauNBkGU6AFhyMqOZptePewnDK7ijpx9irLn4JdMMzNq49AoO0hRZ2aMV18dQGYeK6iwpDcodXDjuwnQMjfjOuRyvi1h8NLfK8V9Vm/os+NltN/BUXUqrcs39vE6u5KDfTTTyGucdl7/Uu3jYlSXISF5CMVwwxKU9UYttSdiuoxyLy1GnzeHz2/f8AI685XmaVkLKKvRMm2LCD2ua7E5pB1EUK82BdBi1+tDifzMd4helQsS4O6iBeTUTM6jh0jD2grONX8ONRa0/fiZovNo9KhRA5rXDE4AjURULYqi5aPfykE5mlvVJaOwBW69RTmpxU1tSfec+Ss2giIpmAuH8sB/w4fvMPucu4XGeVmFWy4p5MWC7bEDP6lOn11xIVOozyu4+Y3ONEdSp3Egay9mPYrG04hdRzjUkqjufdSMdLCO0H3K6nhxRr9y6tNK9zmVHsIZWFkrCuKAstbU0Cwp8rBvRU4z2DMot2JJXMQJcNwnCe7UtU5aDIeAmp5Ix9OZRrWtO8+TYeNlPJ0DSqiUlXxnXrBU4yTiGlxVFSpGEXKTslrb1F8IOTssyXGtqIfRDWjrHafBR+E4vOHY3wV9J3PQ24YhLzmwtb2YTtU3g2FzTNhXArftFhYO0VKXakkvFp+B0Ycm1Gruy99hynCcXnDsb4LHCcXnDsb4LrODIPNM2JwbB5pmxVfvNhvkl/r6kvwue9eJyfCUXnDsb4LPCUXnDsb4Lq+DYPNM2JwbC5qHsT95sN8k/9fUz+F1N68TkzaMXnDsHgtTWviOoL57jrcf8A4uy4Ng8zD6oUuUlK8SFD/CxvuChP9pabVqVNt9rVvC7fDLiSjyXK/wAUlbh6lNY9i7mREi0LsjcYbp0nuXY3O2MY775wIhNOE8o8ke9TbJuUcSHTBvRzYPGPrEYhqw6l1sNjWNDWgBoFABgAGhczm62Kqc9ifotXhsS79+2+2nClHQpd/vaZNANWIe5aCvtxqsUVlR6TMRVj5RfVEoq9Ezc+oOVcndxDpFhOzwyOq6v9S6kRQCQMfcuXu0/QHS/+hV4madBxWf6kqa+O5bXBxKy728mMdha331XTrkfJ8eJHH6zO4+C65d3k+WlhYPs8m19jVrr+IwiItwqCort5XdbOnGAVO4PcBncwX7RtaFer4ewEEEVBFCM4ONZTs7mGr5H5osmJexoZzmnWFPeummW1Ydq5eelTLx4sE1rCiuZU5SxxaD00quqY4OaCMTm16CF1YM5c0VpWFlwoaZlhbBrm2VZVw0YVvtGa3OGXZcTfWPxXoWJAYHHoVbdFE4zGZml2009xVM2WwRXyku6NEDBjJqScNBlcV21mWfe3sGC0kk0A+s52c/GBU9y0uAx0TK516PVH/JOwL0u4iQF6+ORhJvG6Gj0iNZwdC8dyrWnisX0WLtCOvte1/Tqrtz1nfwdNUqXOvW/LYbbNuUhtAMc37uSCQ0bMJVs2yJcfoIXSxp7wpjyvhI06VP4YxJuUpZtkfgqBzELqN8E4KgcxC6jfBSEUrr5TGe8j8EwPs8LqN8E4Jl/s8LqN8Fue8DGaaytJnWjLX40qudalDrWXEyozeq5kWVA5iF1G+CkQ4bWijQGjMAAOxQXT+Zvavgzxzd61/wARw8dT8H6E+Ym9ZYl6+CoO/XZh8dKwZ12YfHSq5coUXt8GSVGZOos0VcZt2fsC1uiE4zVUy5QprqpvuX3fkSVF7SfEjNGM9AwqNFmicWAKOi06uMqTyWS7PUtjSS7SRK5VQXZuwwRoedt74FdDLDBrK5G6qNfTBHIYG9PpHvGxT6uHS3/qRWczoPJ+z5KK7O8DYK/1LrFQ3Fy95KNPLe53bejsaFfL1eAjo4aC7F45nPrO9R8QiItsrCIiA8R8rVk7jP7sBxJhgfXJujAGPGy8P4iqywZm+h3hxs9k4vDYvXruLnxPyjoQoIjTfwicA3QA8UnM4EjpByLwVjnwIpq0texxa5jhQgg0c1wW/QqXXA0a8LM6ObgGt8BrUMqVKWnDiAcYNPJcabDlUu/GcbVtqWRpuOZHkfRPre4Kmug+dHqDvK6C/GcbVz1vn5UeoO8qE9RZAvbnfo7fWd3r1i5VtJODqcdr3Lye5z6Oz1ne0vWrl/ocDU723LxdJX5Rr8Zf+keh/wCvDgvInuGFYovuIQKkmgzqsmZ8nAzAM+fwUsTXp0Feb4La/e92MU4Oeolx5hrMZw5goMWdccWAfGVRapQ5lwq3KFWpkvhXZ6/pwNyNCMdeZklEpoSmhaRaESmhKaEARKaEpoQBKpREuAsgVwLC3y8PDUjUp04OpLRRiTsrm57wxpJxNaSdQFSuAeXRouAcaI/AP1nHAO1dNdTO3sMQgcL8ehgx7Tg2qHcVIbpMboRxYQr+I4GjvPQF0XTdatGjH2vyRQnoRcmd3KS4hw2Q24mNDR0Ci3oi9jaxzAiIgCIiALj7s7hoU/8AKsduUelN0Aq14GIRG5cwcMI0gUXYIsptO6MOKasz8+WncRPy5IdKviAfXg/LNOoN421oVZwLM/ZZn+FF/Kv0sivWIe1FPR1vZ+aeBZn7JM/wov5U4Fmfssz/AAov5V+lkWekvcOjreeG2HAfDgtbEY9jg51WuaWOFTUVBwr1W5l4bJQSczvbcuUuy+lxNTfYCvbAdWVg6A723LyPSObxtaVs23bvOqoXowXDyN87MF7jXEDgGRaFmP6R1r4XBrTlOpKUnd3NyCSikj6bjGtTy6mEqvbjGtSp4VhRQASTDeABhJN6VtYN5S97CursM77h84zrN8VnfTOcZ1h4rhN4ReZi9R3gm8IvMxeo7wVnSJfL5mObW87zfTOcZ1gsb5ZzjOsFwm8IvMxeo7wTeEXmYvUd4J0iXy+Y5tbzu98s5bOsE3yzls6wXCbwi8zF6jvBfD5OI0EuhRABjJa4AdJCdIl8vvuGgt53++WctnWCb4Zy2dYLz6BBc8hrGlxP1QC47ApXBEf7PG/hv8FONWpJXjBvhd/Yw4pbTt98M5bOsFCnrahQgeMHuyNaQcOkjAFyvBMf7PG/hv8ABSZS5uZiEUglozv4oGsHDsCl/wAieUacr8H6GLRWuSIMeM+PFqQXPeQA0bA0BekWBZol4DYeC+PGec7jj6BgHQothXPMluMTfxKelSgbnDR7+5Xq7XJuAdC9Sp1n4fm9pq16yn8MdQREXWNYIiIAiIgCIsEoDKwStEWYooMec0oCxfHAUeJPAKmjzulQI09pQFRdVFvpp7vU9kK+ueP/AE0LU723LlbUiX0UnQO5dVc99Ghfi9ty8jV/q6nF+Z04/wAuP0PuY9I61rX3Mekda+Fx6nXfFm1HUZacI1qw3VvK7VXIp0a7p3yvcjKGkWO6N5Xam6N5Xaq5Ff02XyohzKLDdW8rtTdW8rtUWTljEdQYM5zK34Jh0+tXWt/C0sTiY6cIq3a2r8MvfeU1JU6bs34EIRBnUO3/AKNF1D2gt8aVMKI0HCDiOf8A5Ua3vo0XUPaCq0p2lGorNXVvp789RKyyaZQ3JOvZuGdD/YK9FZMArzCxYl7GafW7iutgTuldzkX+mf8Ak/JGpiuv9PU6cFZVPAnNKnwZmq6xrElFgGqygCIiAIiIAiIgCiTEVSX4lXzCAiTEZVkxHUqYVZMICNMR1WTEwpEwquYQGHPqarrbmI4dADcrHEHUSXA9p2Lh2xb12HEfiqs7OnnQX37cOQtyOHxlXleUKboYpzeqWa+/d5NHRoy0qaW1HYzUPDfZFHqpEhaDIwqw4crTgcNY962vgA6FzauG0npQes2I1LZMhLK3OlTkIPYvgwHZlqOjUjriyzTT2nwi+tydySsiA7MoqnN/2vuM6S3llYDxWIMuDYK+Ku1zMCC5pDg6hHxlVmJ91MXSvVcl41UaCpVU1a9tt7tvZtzt26znYik5T0o7T6tQA3mcEn3LnLppgNgFmV5AA0Agk9gHSpFqW0yHW+dfP5Ax9PJC4+enHRXl7zqGQDMFoY3Eqc5SW37ZZ9xbShopIxKOo6quJeYVHCOFWMuvQcnYeVDDqMtbzf1/I0681Od0X0vHVlLxlRy6tJdbxSXcvFUwFVcurKFiQH2iIgCIiAIiIAokxCUtYIQFFMQVWzEBdRFl6qBHk0BycxAVbMS666PJaFXxpHQgOPjyy1Q3FmA4R2hdPGkNChRbP0KqtRhWhoVFdEoTcHdFdCiYi04RlGAjwVrK2/GZgJDx+tj2j31UF9nL4Mu4LhVeRqkXejPLc8n6PwNyOKi+sjo4N0zD6cN41UcPcpTLdgH65GtrvBciIRzFNzOZaksLjI66d+Fn5NliqUn/AHHYm2oHOjY7wWqJdBAGJznamn30XJXhzLO5HMoqhi5ZKm/qn9zLnT+Yv4904+pCOtxp2DxVbNWxGiYC+9GZvFG3H2qIIDsy2Nk3FbEOS8XU69orivJX8WiDxFNasyKSstYXalYQrP0KbBkNC62E5MpYdqXWlvezgtni+01qmIlPLUiul5dWUvAU2DI6FPgSWhdEoIsvAVnLwVvgSanwZaiA+JeEpgCAUWUAREQBERAEREAREQBYIWUQGl8uCo8SQBU5EBTxLN0KLEs3QuiWKIDln2ZoWh1l6F1xhjMsGC3MgOONl6F8cFaF2Rlm5ljercyA47grQvoWVoXX71bmWRLNzIDk22XoW9lmaF024NzL6EMZkBz8OzNClQ7N0K4AWUBAhyFFIZLALeiA+QKL6REAREQBERAEREAREQBERAEREAREQBERAEREAREQBERAEREAREQBERAEREAREQBERAEREB//2Q==;" vertex="1" parent="1">
          <mxGeometry x="257" y="220" width="35" height="35" as="geometry" />
        </mxCell>
        <mxCell id="uJIaa8Uo3cL_eyI10xOK-13" value="" style="shape=image;verticalLabelPosition=bottom;labelBackgroundColor=default;verticalAlign=top;aspect=fixed;imageAspect=0;image=data:image/png,iVBORw0KGgoAAAANSUhEUgAAAOEAAADhCAMAAAAJbSJIAAAA81BMVEUmLjv////4mRsiKzglLTv/nhj8mxr5+fg8QU0hLDsiKjgZIzImLzscJjT/nxggLDsRHiwADyQAJDwLGSsADiMWIDAOGyyeoaMAFCcAAB4XKTwAIjz5mBvLzM7R09Ty8/Po6elZX2d6VTIAID1ydnytrrExN0WNkJa8vb9hZm1RVl19gIZDSVSytbjj4+SBg4pYRDTEfSZGPTjvlSG4dSjOgyRzeIFYW2ejp6toa3Q1P0cADB4IEy0NGCwAGic/SE8AAA8AAAAzMzxpTTOkbC2FXTE7OTuRYi7fiyGocSeYaSliSzRAPTnijCKNYTB/WTIFKTsv9DfvAAAMKUlEQVR4nO2ba1ejyBaGESrEcAkJBELIXWMSo+ZqurUdz8x4S6Kj9v//NacKqqAgUXvmCK45az8fek0wQG1qX969yQgCAAAAAAAAAAAAAAAAAAAAAAAAAAAAAAAAAAAAAAAAAAAAAAAAAAAAAAAAAAAAAACfjKLbjuW6rmWrupTa5cnVlc+/+odo6rVz2hscDZvN5rA6OUZXKvdXyS6VSo4jacmzbAf/wda3LqeSE0o64o64/cvBEbn6xeS4Xy5laqSGdNc5GXbyexHt5reKyhYo7Vd9Rnb8REUb+Me/23HTNevEP94LTVdrkxZ3+fz44ntNFbJC053j4d42nZ5Fv+GwPx/HdgupbXr8Mr5a64gasu/vlKaUJu2ty497DhKywe6Od9hHOKvQb1TpgeY1f6J6wr7YLPPHpT61p4N8G3ShufPyF042Biqn+Z33Jwxd/yv6Mf3c5iNLsM7Y99qxPQy/3vSdQPnReePyTgr5bAd6700D9/aqwWO22RpHfIKwor2PHXcu6NETYrhiv2XgXj+bdKN/i245bjWbrZjPBpF0zQJxwOUaaT/a/Am/ieUWPeqf63Ix3hoeXeB0zUzOysJgD9vDwX6tgquhW7nqDsO1D/0IU9k+8wGnX0ZLH15H7ouu2ZcrJI0xl91rHddcy3FwTaw4l0MSqlo2qca3cNhTrmyJ3hDpVyP2mPOIxIr2G/toRSeGzkg2X0XxC/obTjbWYlnmohwFsaS7yqTVzCqZaheDvqXyQa8J6j5bux9LgsvW2Y0cK3TGhMM5R9wxSaDu0KrF7yqppVJW1UKy1ULyXuiaFYgzv0CoE/qxGgViOdjVoDJ8447TQG6RLKWP6ImThFrw75KGOb+Kcsr87zf/4+8smFz2Del7cCDY3bOwtiksAfkPI8xjo6/Qou/i0J3o+CtD/6Ef233mzqVgl6uD4EFU2ImhDvBtCj91t8XrF8Mirx1EmFNNrvQq+MIxzZUas5zpgI6/22HCrV7vustXEmlLf+kKi6cwEKkode3AKZnK1my62xd+ppSYe7d/ZKe0fw1WC6iFQpnWj6Yb9BFKN/DOcqVFDQrOk1gWHvkmI53Vnc6onI1Iex8U5jfmlszCayZCadan2fXIoY+CpSCdZt12pUAeBQprB85G/bL6ZUYiUqAc18Vtq+s6ti6hUsLCUJsEgYiokOvp9A80XkORxpKrwmm7veZk37W/JKlqklrZnxw1x4TWWbX3u/tHwkJJYkXAXzoKwi1/Kkkab7lQoZ3TJctIzmCPI98a/KjYSnJYkDqqPeEFCtmSZituYSi/WmWyPBpuY0fQSsE3A1HO6mhboKdpqJzsDluD/euM047be7PBiSxkla3t1wX66cwKVVrTD0Sb7lgzVAZ4u7cb4FbPztBGqXa2tYIdFoYB5Y8ynOAcosWobGn7KYiVUb6dUuKOGjA+Lu9YSzqUds8YkhYKV9Rv/bpQCareqRL1iX4rqQTekDe4pIkEp3+2PUg4KmVkoBWl8712qzkc4h6YmxtFFrJpTcsiU7bg+75Wo1KbBCITBq3EBknl/UEi0nHLVslEekcd6t6wW3Asy3Kv7UK/OxgnLWS1PC8orAcc+lKMeiz5wMJwsNVJKLbTH7TiO1m1kt9KA9br7LWPK3owG0NIkvRaolrgrFij+QgHIi3zgSF6kHU611EY9gs7bqXYZe2kyfvHaQZlI9rCbklAnNckVZsQtbY4EN3A5UgYCkhCdL2SUAs2aWy9sXJJdbWTaBB0lsE8MZwIniUiZ4eFejc4NK7QiWhbDwypBJt7orJ+t7qj3WVIau2EOWs7jfcjCVgbuNW/MdM5CyVEPUyhtjZ/CzbdCpTamcWS0fvtLrK6zMTT1CWcJNBFt5OTvXJS0wiR5uy5VS4Mw/I/LtGTOu77SRJdMc/ppd4XK/vhAD7uL6jQYRZGpjNZc/QH7X7p+phU0+jzuvio2w2jf5K6sgmFSkeIWxhlIM6RaErZG//pn9UOnwoda3fpSaOPdiacAp2kbmH4EoXfKoFUhjDh8TFFu918kFCiqRR132rgvO3E4HCbcMLcTb+VClvwb/zTROVo2sv/gRV0apCTON6kczeukGt6Sd+eGlbYpP8mfQvDUS8/sdUtbpw9jLqEaEQRC8NQrOUDl7/knFS/PPpeshMx7rBc2spgKGyHsv+iHCxMUcujmIQsceuz+dc25Wh5LqdU2nxIE4XemvQrTlj5UKnSY8ViYqdvodIPV9Yc1cpuuaZNmgn1yGXGEre5vLp2uf4k9ro0EAP5VvVYx1d38fULUbPdyaRH5FuLfItrK8JegC+VTNYQjjjJVeI6wFh+rESbnh+38PX5p/dhzv0UQqGS4KIW1gu+aJWib/PhJo2iM2N1p/LWG3TyDLMZEmv6aNdb7oGrscFM+5RbcvS+kxc7+Cqh5fHWkH8Ft2VgVvMoe7S1i+OuJWhU77T2ea+LXouOYwsMXxMmWkPJfmNE0jm+zuzVE9L78R+btAe674Al4qeD+M8JUPjWsBf/dUKXGR4f+mqCdbpjgpGvokynbYq7f0RTTL4z7NVYDldPB/1krCD39BjTlRIr1O0uOT6ytvohyamNLlrt0Exyi7Kd8fBbk67LP7qXvV5337FUIXQ/aVe9knTC9h/wwbd+saY7FfX08mSAObk8dVw184kwQVHwEhUpteCQdFW17S/62R4AAMD/IZqACgXPMKSMfveVIbgOIsMz63VtPp1O55pZN71d4/F/LUjw6je3d8tFsZgLeJ7dP3hp1X/DK2QrLTTB8w5mi5wsi4yGKOfElZfO/Yzp3dzM1EM8b4XNE5PIopFONJrrnLy5MbNrYbzb59yWeb6J81QetOY9FkV58WJ6Gdno3WP3xORCZOapcyOdW9ZXckMsLl4NT8giHr3zxWI526zub6fzh4eH+dP9+SKwsfFXWsFiHuAYaBSf700vi27N0zxcGzxcBgsEXDQe1r6JjdSqolafkqcoy8/3RhZVacsO78UPzIWZ2i0172YtN0jGXqxuzK0fCqd00/AfwTggFsrLeoq3K3jnQX7LLTYPdQ9lYSQimsYvgd5rroFvfZdSPaS3q7+KQTDIueVtIX1nxXL0aZZrHBCrvBW5dfEpVQuxp87XtExhZ72bH3qpeaumFXB2WZGqKC+Iu5gz/+EKaT9Ww9wwHYXL1fL1xiMlMoUCYtTRwUz07yUviI4xnsl/zn6mHRtIMJ8itYF14uzgxvzkGomQYRq350S0NcRGQxaJZxpzYmzuNV0nDfC0DScYsbfO7g3T+zS5iJ3TPMD1nd1CXvr9RFAsFjeZ5HBkTnHd4KRiLrd8nGr/S/NGqwLOnN78fiZHT1AWV4fkspq5JNX4PL1qGAcLfzGm+xtyEW/l3KzjvfwnT1kTsGyp128ONmuZ65fE4nIe2GR4vpM+ZNbfIO/hXE70NvjJL2arqeb99Iy/tRDcyHum8dfr+bOYi100t3it07jDUrxBthBl16UWDqfLpI0kv+bE9fnL04NXJ5rygyyLJGxbva5NDza4k8/xnk/aXfHO8JgKJU6K+4pMW1StUH9aF7d7VCIHcuJivXk8mBuHpkn0M7GWaWgMOYD/UDdvpvd3s+eFWNzxrHLnD1E/WpiTQ3dZRSGFzFGeduwj201saLGxXs7OH18Obp+m03nAdPp0+/pydz5bLuRiLueHXWPrbBHbx22Y9yiL8jpjA4mNOPfdznbMGvgNjdpY2tMWww9vnCLmxM28zs+F0M9n/OW0et8PMMz5Rnxrsf8E0rtoZtwY4ykn5g6yKPY70JBR11brT7KRiKTb7cJqznK5e/ML/ydL5HnTc/Fdb/01+4rr1V/1HbMgc5F7zT4I4xg/D2+J1PrHVpIy80ialZ1Xn998kYtyaJpnotvNM04hW5nxV8xbruZvyz6U0UjhQ7A4MeYvs8XbeXKXcUVxvXkSsHZ/79Jf8i5/J4i0BtOX8/WClrp3bJPlovi8fLzVDs2/J/O+Hglrlpvp62a2JjU9qIM+ohzOeYuLJVZ388/suzLGl9PmIdacq7sNFjDr9TOBaJy71evTA3lVhhX6v9Q6DlQwqAatHx4emvW6GQx6/2VeCQAAAAAAAAAAAAAAAAAAAAAAAAAAAAAAAAAAAAAAAAAAAAAAAAAAAAAAAADAJ/FfWNsYmF0OQJUAAAAASUVORK5CYII=;" vertex="1" parent="1">
          <mxGeometry x="590" y="110" width="35" height="35" as="geometry" />
        </mxCell>
      </root>
    </mxGraphModel>
  </diagram>
</mxfile>
